<svg xmlns="http://www.w3.org/2000/svg" fill="none" viewBox="0 0 14 14" height="48" width="48"><path stroke="#ff7555" stroke-linecap="round" d="M4.75345 0.75L4.75345 3.28918"></path><path stroke="#ff7555" stroke-linecap="round" d="M9.23978 0.75L9.23978 3.28918"></path><path fill="#ffffff" stroke="#ff7555" d="M1.09192 10.5249C1.25326 11.9642 2.4232 13.1071 3.86992 13.1768C4.86987 13.2249 5.89136 13.2499 7 13.2499C8.10864 13.2499 9.13012 13.2249 10.1301 13.1768C11.5768 13.1071 12.7467 11.9642 12.9081 10.5249C13.0167 9.55554 13.1059 8.56176 13.1059 7.54941C13.1059 6.53707 13.0167 5.54329 12.9081 4.57397C12.7467 3.13459 11.5768 1.99174 10.1301 1.92207C9.13012 1.87391 8.10864 1.84888 7 1.84888C5.89136 1.84888 4.86987 1.87391 3.86992 1.92207C2.4232 1.99174 1.25326 3.13459 1.09192 4.57397C0.983273 5.54329 0.894135 6.53707 0.894135 7.54941C0.894135 8.56176 0.983274 9.55554 1.09192 10.5249Z"></path><path stroke="#ff7555" stroke-linecap="round" stroke-linejoin="round" d="M4 6.04944H4.5"></path><path stroke="#ff7555" stroke-linecap="round" stroke-linejoin="round" d="M4 9.04944H4.5"></path><path stroke="#ff7555" stroke-linecap="round" stroke-linejoin="round" d="M6.75 6.04944H7.25"></path><path stroke="#ff7555" stroke-linecap="round" stroke-linejoin="round" d="M9.5 6.04944H10"></path><path stroke="#ff7555" stroke-linecap="round" stroke-linejoin="round" d="M6.75 9.04944H7.25"></path></svg>